<?xml version="1.0" encoding="UTF-8"?>
<svg xmlns="http://www.w3.org/2000/svg" xmlns:xlink="http://www.w3.org/1999/xlink" viewBox="0 0 48 48" version="1.1" width="48px" height="48px">
<g id="surface1">
<path style=" fill:#FF5722;" d="M 10 33.019531 C 10.597656 33.019531 11.265625 33.019531 12 33.019531 L 12 19.039063 C 10.890625 20.042969 10.300781 21.253906 10 22.160156 Z "/>
<path style=" fill:#FF5722;" d="M 21 18.105469 C 20.324219 17.789063 19.246094 17.390625 18 17.269531 L 18 33.015625 C 18.976563 33.015625 19.980469 33.015625 21 33.015625 Z "/>
<path style=" fill:#FF5722;" d="M 14 33.019531 C 14.941406 33.019531 15.949219 33.019531 17 33.019531 L 17 17.238281 C 15.828125 17.269531 14.828125 17.46875 14 17.796875 Z "/>
<path style=" fill:#FF5722;" d="M 4 23.953125 C 2.820313 24.847656 2 26.304688 2 27.992188 C 2 29.578125 2.796875 30.980469 4 31.898438 Z "/>
<path style=" fill:#FF5722;" d="M 40.996094 22.015625 C 39.550781 22.015625 38.710938 22.535156 38.710938 22.535156 C 38.710938 22.535156 37.871094 14.050781 29.441406 14.050781 C 24.535156 14.050781 22.609375 16.753906 22 17.945313 L 22 33.015625 C 30.824219 33.015625 40.296875 33.015625 40.296875 33.015625 C 40.296875 33.015625 46.164063 32.921875 46.164063 27.5625 C 46.164063 23.4375 42.4375 22.015625 40.996094 22.015625 Z "/>
<path style=" fill:#FF5722;" d="M 8 23.101563 C 7.605469 23.050781 7.15625 23.011719 6.660156 23.011719 C 6.4375 23.011719 6.21875 23.050781 6 23.085938 L 6 32.851563 C 6.421875 32.957031 6.859375 33.019531 7.3125 33.019531 C 7.460938 33.019531 7.703125 33.019531 8 33.019531 Z "/>
</g>
</svg>
